<?xml version="1.0" standalone="no"?><!DOCTYPE svg PUBLIC "-//W3C//DTD SVG 1.1//EN" "http://www.w3.org/Graphics/SVG/1.1/DTD/svg11.dtd"><svg t="1673431014712" class="icon" viewBox="0 0 1024 1024" version="1.1" xmlns="http://www.w3.org/2000/svg" p-id="2361" xmlns:xlink="http://www.w3.org/1999/xlink" width="200" height="200"><path d="M1009.84 755.861L672.97 418.927l100.034-100.152c3.616 0.64 7.232 1.28 11.008 1.28 44.193 0 80.002-35.837 80.002-79.994 0-44.156-35.81-79.994-80.002-79.994-44.192 0-80.001 35.838-80.001 79.994 0 3.84 0.608 7.36 1.12 10.88L605.097 351.092 268.228 14.159c-18.912-18.879-49.537-18.879-68.449 0C91.585 122.31 32 266.299 32 419.247c-0.031 104.632 28.545 204.784 80.93 292.457C47.713 732.183 0 792.018 0 864.012 0 952.326 71.65 1024 160.003 1024c71.873 0 131.938-47.676 152.162-112.951 87.681 52.476 187.843 80.953 292.644 80.953 152.995 0 296.837-59.515 405.03-167.666 18.881-19.199 18.881-49.597 0-68.475zM160.003 928.008c-35.361 0-64.001-28.798-64.001-63.996 0-35.517 28.64-63.995 64-63.995 35.33 0 64.001 28.478 64.001 63.995 0 35.198-28.672 63.996-64 63.996z m444.806-32.958c-127.138 0-246.691-49.276-336.58-139.189-89.922-89.913-139.427-209.584-139.427-336.614 0-111.031 37.665-215.983 106.914-300.776l669.706 669.707C820.75 857.613 715.692 895.05 604.81 895.05z" p-id="2362" fill="#13227a"></path></svg>