<?xml version="1.0" standalone="no"?><!DOCTYPE svg PUBLIC "-//W3C//DTD SVG 1.1//EN" "http://www.w3.org/Graphics/SVG/1.1/DTD/svg11.dtd"><svg t="1671688201245" class="icon" viewBox="0 0 1024 1024" version="1.1" xmlns="http://www.w3.org/2000/svg" p-id="3438" xmlns:xlink="http://www.w3.org/1999/xlink" width="200" height="200"><path d="M512 512m-512 0a512 512 0 1 0 1024 0 512 512 0 1 0-1024 0Z" fill="#2D418C" p-id="3439"></path><path d="M710.4 192c14.08 0 25.6 11.52 25.6 25.6V256h44.8a51.2 51.2 0 0 1 51.2 51.2v377.6a51.2 51.2 0 0 1-51.2 51.2H704v35.2a12.8 12.8 0 0 1-12.8 12.8h-38.4a12.8 12.8 0 0 1-12.8-12.8v-35.2H384v35.2a12.8 12.8 0 0 1-12.8 12.8h-38.4a12.8 12.8 0 0 1-12.8-12.8v-35.2H243.2a51.2 51.2 0 0 1-51.2-51.2V307.2a51.2 51.2 0 0 1 51.2-51.2H640v-38.4c0-14.08 11.52-25.6 25.6-25.6h44.8z m-52.48 287.68h-49.408v95.552c0 7.872 1.536 16.96 4.608 27.136 1.92 6.4 5.376 12.544 10.56 18.496 5.12 5.952 10.816 10.56 16.96 13.824 6.208 3.2 13.952 5.44 23.168 6.528 9.216 1.088 17.728 1.6 25.536 1.6 13.44 0 25.024-1.728 34.688-5.312a55.424 55.424 0 0 0 19.84-13.312 57.984 57.984 0 0 0 13.888-22.08c1.92-5.632 3.264-11.52 3.904-17.536l0.512-9.344V479.68h-49.408v97.92c0 8.832-2.432 15.744-7.296 20.544a27.136 27.136 0 0 1-20.096 7.296 27.072 27.072 0 0 1-20.16-7.36 25.28 25.28 0 0 1-6.784-14.336l-0.448-6.208v-97.92z m-145.792-2.752c-16.64 0-29.824 2.112-39.424 6.272a47.488 47.488 0 0 0-21.504 17.28 42.048 42.048 0 0 0-7.168 23.36c0 12.544 4.672 22.848 13.952 30.976 9.28 8.064 24.768 14.592 46.528 19.456 13.248 2.88 21.76 6.016 25.344 9.28a14.72 14.72 0 0 1 5.504 11.136c0 4.416-1.92 8.256-5.76 11.52a24.192 24.192 0 0 1-16.32 5.056 26.24 26.24 0 0 1-21.888-9.792 30.592 30.592 0 0 1-5.312-12.096l-0.96-5.376-47.104 2.944a62.08 62.08 0 0 0 17.792 40.064c10.496 10.496 29.44 15.744 56.704 15.744 15.488 0 28.352-2.24 38.592-6.72a53.376 53.376 0 0 0 23.808-19.776 50.816 50.816 0 0 0 8.576-28.416 45.056 45.056 0 0 0-6.4-23.744 48.896 48.896 0 0 0-20.48-17.792c-9.344-4.736-24.896-9.472-46.528-14.144-8.768-1.856-14.272-3.84-16.64-5.888-2.368-2.048-3.584-4.352-3.584-6.912 0-3.52 1.472-6.464 4.352-8.96 2.944-2.368 7.296-3.648 13.056-3.648 6.976 0 12.48 1.664 16.448 4.928a21.76 21.76 0 0 1 6.592 10.752l1.216 4.992 46.72-2.688c-2.048-16.64-8.448-28.8-19.2-36.416-10.752-7.616-26.368-11.392-46.912-11.392z m-156.48 2.752h-82.56V640h49.728V574.912h4.416c4.48 0 8.512 1.28 12.16 3.712 1.92 1.408 4.096 4.096 6.464 8.064l2.432 4.288 26.496 49.024h56l-23.936-46.464a62.912 62.912 0 0 0-6.976-9.984 49.92 49.92 0 0 0-7.936-8.384 49.344 49.344 0 0 0-12.864-5.952 59.904 59.904 0 0 0 17.344-6.336 44.48 44.48 0 0 0 15.68-15.68c3.776-6.4 5.696-14.08 5.696-23.04a44.288 44.288 0 0 0-7.488-25.984 37.376 37.376 0 0 0-19.584-14.592 100.8 100.8 0 0 0-26.304-3.776l-8.768-0.128zM344.576 512c9.088 0 15.232 1.408 18.56 4.16 3.2 2.816 4.864 6.784 4.864 11.968a14.848 14.848 0 0 1-3.136 9.28 13.12 13.12 0 0 1-8 5.056c-6.528 1.408-10.88 2.176-13.12 2.176h-20.928V512h21.76zM704 352H320a32 32 0 0 0-5.76 63.488L320 416h384a32 32 0 1 0 0-64z" fill="#FFFFFF" p-id="3440"></path></svg>