<?xml version="1.0" standalone="no"?><!DOCTYPE svg PUBLIC "-//W3C//DTD SVG 1.1//EN" "http://www.w3.org/Graphics/SVG/1.1/DTD/svg11.dtd"><svg t="1673431005216" class="icon" viewBox="0 0 1024 1024" version="1.1" xmlns="http://www.w3.org/2000/svg" p-id="2181" xmlns:xlink="http://www.w3.org/1999/xlink" width="200" height="200"><path d="M954.066 439.7a181.176 181.176 0 0 1-49.844 64.146 25.936 25.936 0 0 1 5.917 30.043l-87.854 188.377a25.985 25.985 0 0 1-34.531 12.566l-74.657-34.81a77.974 77.974 0 0 1-88.605 16.023l-149.2-69.564-50.517 101.011a77.534 77.534 0 0 1-69.729 43.083H223.391v25.982a78.036 78.036 0 0 1-77.952 77.943h-51.97a25.982 25.982 0 0 1-25.984-25.98V608.707a25.983 25.983 0 0 1 25.983-25.982h51.969a78.076 78.076 0 0 1 73.485 51.964h87.941l27.067-54.118L200.593 518.4c-64.927-30.273-93.118-107.718-62.841-172.637l65.89-141.284c30.277-64.919 107.731-93.1 172.655-62.835l565.2 263.523a25.985 25.985 0 0 1 12.569 34.533zM145.439 634.687h-25.985v207.85h25.983a26.012 26.012 0 0 0 25.985-25.982V660.669a26.012 26.012 0 0 0-25.983-25.982z m640.727 42.071l65.894-141.282-2.421-1.127a182 182 0 0 1-59.26 10.429L739.067 654.8z m-463.246 9.89h-99.529v51.962h131.655a25.845 25.845 0 0 0 23.246-14.36l49.884-99.742-47.128-21.973-34.887 69.752a25.984 25.984 0 0 1-23.241 14.361zM217.795 297.083l-32.944 70.641a78.03 78.03 0 0 0 37.7 103.581L646.455 668.95a25.972 25.972 0 0 0 34.53-12.566l55.683-119.4a184.083 184.083 0 0 1-24.326-9.311z m136.539-108.344a78.041 78.041 0 0 0-103.593 37.7l-10.981 23.548 494.544 230.584a130.038 130.038 0 0 0 159.336-40.378z m266.985 411.155l-94.2-43.921a25.982 25.982 0 1 1 21.966-47.094l94.2 43.921a25.982 25.982 0 1 1-21.966 47.094z m-271.626-129.32a25.982 25.982 0 1 1 25.984-25.981 25.983 25.983 0 0 1-25.984 25.981z m-94.184-43.926a25.982 25.982 0 1 1 25.984-25.982 25.984 25.984 0 0 1-25.984 25.982z" fill="#13227a" p-id="2182"></path></svg>